<svg width="820" height="920" viewBox="0 0 820 920" fill="none" xmlns="http://www.w3.org/2000/svg">
  <ellipse cx="412" cy="850" rx="185" ry="36" fill="#F6C31C" opacity="0.85"/>
  <path d="M277 103C329 54 516 44 583 94C613 117 631 147 635 185L605 216L245 214C241 167 254 127 277 103Z" fill="#5C4398"/>
  <path d="M240 184C263 128 315 93 394 88H560C613 95 649 127 669 174L678 220H230L240 184Z" fill="#442E75"/>
  <path d="M236 216C248 173 296 145 356 145H604C637 145 660 167 668 196L675 220H236V216Z" fill="#6A4FAE" opacity="0.45"/>
  <path d="M254 219C274 161 314 132 386 125H540C586 129 624 149 652 192L651 237H233L254 219Z" fill="#442E75"/>
  <path d="M274 204C307 164 352 147 402 145H555C589 145 618 156 639 177L653 236H235L274 204Z" fill="#5A4099"/>
  <path d="M236 238C268 247 314 248 351 248H569C599 248 626 244 652 236" stroke="#2F2560" stroke-width="5" stroke-linecap="round"/>
  <path d="M250 216L177 253" stroke="#2F2560" stroke-width="22" stroke-linecap="round"/>
  <text x="430" y="195" text-anchor="middle" font-family="Arial, sans-serif" font-size="56" font-weight="800" fill="#FFF7E3">PAÑALÍN</text>

  <path d="M330 267C249 289 186 339 173 422C162 492 174 624 214 715C251 798 318 833 413 835C515 836 586 800 621 717C661 621 670 488 659 418C646 338 583 289 499 267C459 257 370 257 330 267Z" fill="#F8EAD9"/>
  <path d="M292 326C313 299 352 286 390 287H431C468 287 510 300 529 327" stroke="#2F356D" stroke-width="9" stroke-linecap="round" opacity="0.75"/>
  <circle cx="351" cy="368" r="17" fill="#29326D"/>
  <circle cx="471" cy="368" r="17" fill="#29326D"/>
  <path d="M404 390C389 393 378 405 378 420C378 436 389 447 404 449" stroke="#29326D" stroke-width="9" stroke-linecap="round"/>
  <circle cx="285" cy="404" r="21" fill="#F6C4A8"/>
  <circle cx="537" cy="404" r="21" fill="#F6C4A8"/>
  <path d="M340 442C364 472 452 476 486 441" stroke="#29326D" stroke-width="18" stroke-linecap="round"/>
  <path d="M382 460C391 473 413 481 434 478C455 474 468 463 474 451" fill="#FF844B"/>

  <path d="M185 472C120 444 90 363 103 304" stroke="#F8EAD9" stroke-width="58" stroke-linecap="round"/>
  <path d="M117 299C106 282 108 260 122 246C136 232 159 234 171 251L186 272" stroke="#29326D" stroke-width="9" stroke-linecap="round"/>
  <path d="M141 258L165 309" stroke="#29326D" stroke-width="9" stroke-linecap="round"/>
  <path d="M170 250L194 300" stroke="#29326D" stroke-width="9" stroke-linecap="round"/>

  <path d="M639 482C701 453 730 386 725 333" stroke="#F8EAD9" stroke-width="58" stroke-linecap="round"/>
  <path d="M675 532C649 510 615 505 596 527C581 545 581 576 605 592C630 608 664 600 684 577" stroke="#29326D" stroke-width="10" stroke-linecap="round"/>

  <path d="M234 560H590L575 725C536 758 481 777 411 777C341 777 286 758 247 725L234 560Z" fill="#FAFAFB" stroke="#D7D9E7" stroke-width="4"/>
  <path d="M260 566H564" stroke="#D7D9E7" stroke-width="6"/>
  <rect x="214" y="602" width="78" height="40" rx="11" fill="#90B7FF" stroke="#29326D" stroke-width="4"/>
  <rect x="530" y="602" width="78" height="40" rx="11" fill="#90B7FF" stroke="#29326D" stroke-width="4"/>

  <path d="M360 501L412 454L465 501V598H360V501Z" fill="#29326D"/>
  <path d="M321 520L412 436L503 520" stroke="#29326D" stroke-width="16" stroke-linecap="round" stroke-linejoin="round"/>
  <path d="M412 454V595" stroke="#FFFFFF" stroke-width="8" opacity="0.08"/>
  <text x="412" y="660" text-anchor="middle" font-family="Arial, sans-serif" font-size="34" font-weight="800" fill="#29326D">LA CASA</text>
  <text x="412" y="700" text-anchor="middle" font-family="Arial, sans-serif" font-size="34" font-weight="800" fill="#29326D">DEL PAÑAL</text>

  <path d="M273 730C243 756 225 786 225 817C225 839 241 852 263 852C287 852 301 839 307 818" stroke="#29326D" stroke-width="9" stroke-linecap="round"/>
  <path d="M549 730C581 757 598 786 598 818C598 839 581 852 558 852C534 852 521 840 515 818" stroke="#29326D" stroke-width="9" stroke-linecap="round"/>
</svg>